# xmcd
#
# Track frame offsets:
#	150
#	25599
#	52405
#	76906
#	101952
#	120852
#	144248
#	160995
#	181294
#	194113
#	216585
#
# Disc length: 3212 seconds
#
# Revision: 2
# Processed by: cddbd v1.4b41PL3 Copyright (c) Steve Scherf et al.
# Submitted via: EZCDDA 4.3.2
#
DISCID=9e0c8a0b
DTITLE=Carl Verheyen - Atlas Overload
DYEAR=1900
DGENRE=
TTITLE0=Revival Downs
TTITLE1=Chinatown
TTITLE2=Atlas
TTITLE3=Nordenham
TTITLE4=Stand Up
TTITLE5=Find Her Way
TTITLE6=Funkadiddy
TTITLE7=9:05
TTITLE8=Mumba
TTITLE9=Confident lie
TTITLE10=Wasted Blues
EXTD=
EXTT0=
EXTT1=
EXTT2=
EXTT3=
EXTT4=
EXTT5=
EXTT6=
EXTT7=
EXTT8=
EXTT9=
EXTT10=
PLAYORDER=
